{"title":"The.Jeff.Dunham.Show.S01.E06.HDTV.XviD-RNR.JoeBonanno","uid":5220985,"size":189249536,"categoryP":"video","categoryS":"tv_shows","magnet":"?xt=urn:btih:cee60cb5e7f60d87354ecefa4916e882c3746be6&amp;dn=The.Jeff.Dunham.Show.S01.E06.HDTV.XviD-RNR.JoeBonanno&amp;tr=udp%3A%2F%2Ftracker.openbittorrent.com%3A80&amp;tr=udp%3A%2F%2Fopen.demonii.com%3A1337&amp;tr=udp%3A%2F%2Ftracker.coppersurfer.tk%3A6969&amp;tr=udp%3A%2F%2Fexodus.desync.com%3A6969","seeders":1,"leechers":0,"uploader":"cliv333","files":1,"time":1260928758,"description":"The.Jeff.Dunham.Show.S01.E06.HDTV.XviD-RNR.JoeBonanno\n   General\n      Format : AVI\n      Format/Info : Audio Video Interleave\n      File size : 180 MiB\n      Duration : 21mn 4s\n      Overall bit rate : 1 197 Kbps\n      Writing application : VirtualDubMod 1.5.10.2 (build 2542/release)\n      Writing library : VirtualDubMod build 2542/release\n   Video\n      Format : MPEG-4 Visual\n      Format profile : Streaming Video@L1\n      Format settings, BVOP : Yes\n      Format settings, QPel : No\n      Format settings, GMC : No warppoints\n      Format settings, Matrix : Default\n      Muxing mode : Packed bitstream\n      Codec ID : XVID\n      Codec ID/Hint : XviD\n      Duration : 21mn 4s\n      Bit rate : 1 070 Kbps\n      Width : 624 pixels\n      Height : 352 pixels\n      Display aspect ratio : 16/9\n      Frame rate : 25.000 fps\n      Resolution : 24 bits\n      Colorimetry : 4:2:0\n      Scan type : Progressive\n      Bits/(Pixel*Frame) : 0.195\n      Stream size : 161 MiB (89%)\n      Writing library : XviD 50\n   Audio\n      Format : MPEG Audio\n      Format version : Version 1\n      Format profile : Layer 3\n      Codec ID : 55\n      Codec ID/Hint : MP3\n      Duration : 21mn 4s\n      Bit rate mode : Variable\n      Bit rate : 114 Kbps\n      Minimum bit rate : 128 Kbps\n      Channel(s) : 2 channels\n      Sampling rate : 48.0 KHz\n      Resolution : 16 bits\n      Stream size : 17.2 MiB (10%)\n      Alignment : Aligned on interleaves\n      Interleave, duration : 24 ms (0.60 video frame)\n      Interleave, preload duration : 498 ms\n      Writing library : LAME3.98r\n      Encoding settings : ABR","torrent":{"xt":"urn:btih:cee60cb5e7f60d87354ecefa4916e882c3746be6","amp;dn":"The.Jeff.Dunham.Show.S01.E06.HDTV.XviD-RNR.JoeBonanno","amp;tr":["udp%3A%2F%2Ftracker.openbittorrent.com%3A80","udp%3A%2F%2Fopen.demonii.com%3A1337","udp%3A%2F%2Ftracker.coppersurfer.tk%3A6969","udp%3A%2F%2Fexodus.desync.com%3A6969"],"infoHash":"cee60cb5e7f60d87354ecefa4916e882c3746be6","infoHashBuffer":{"type":"Buffer","data":[206,230,12,181,231,246,13,135,53,78,206,250,73,22,232,130,195,116,107,230]},"announce":[],"urlList":[]}}